<?xml version="1.0" encoding="UTF-8"?> <svg xmlns="http://www.w3.org/2000/svg" xmlns:xlink="http://www.w3.org/1999/xlink" id="_Слой_2" data-name="Слой 2" viewBox="0 0 1996.34 279.05"> <defs> <style> .cls-1 { fill: url(#linear-gradient-2); } .cls-2 { opacity: .7; } .cls-3 { fill: #fff; } .cls-4 { fill: url(#linear-gradient-17); } .cls-5 { fill: url(#linear-gradient-15); } .cls-6 { fill: url(#linear-gradient-18); } .cls-7 { fill: url(#linear-gradient-28); } .cls-8 { fill: url(#linear-gradient-14); } .cls-9 { fill: url(#linear-gradient-20); } .cls-10 { fill: url(#linear-gradient-6); } .cls-11 { fill: url(#linear-gradient-11); } .cls-12 { opacity: .35; } .cls-13 { fill: #0d6442; } .cls-14 { fill: url(#linear-gradient-10); } .cls-15 { fill: url(#linear-gradient-16); } .cls-16 { fill: url(#linear-gradient-21); } .cls-17 { fill: url(#linear-gradient-25); } .cls-18 { fill: url(#linear-gradient-5); } .cls-19 { fill: url(#linear-gradient-7); } .cls-20 { fill: url(#linear-gradient-24); } .cls-21 { fill: url(#linear-gradient-9); } .cls-22 { fill: url(#linear-gradient-22); } .cls-23 { fill: url(#linear-gradient-3); } .cls-24 { fill: url(#linear-gradient); } .cls-25 { fill: url(#linear-gradient-27); } .cls-26 { fill: url(#linear-gradient-29); } .cls-27 { fill: url(#linear-gradient-23); } .cls-28 { fill: url(#linear-gradient-19); } .cls-29 { fill: url(#linear-gradient-4); } .cls-30 { fill: url(#linear-gradient-8); } .cls-31 { fill: url(#linear-gradient-12); } .cls-32 { fill: url(#linear-gradient-13); } .cls-33 { fill: url(#linear-gradient-26); } </style> <linearGradient id="linear-gradient" x1="0" y1="234.91" x2="21.66" y2="234.91" gradientUnits="userSpaceOnUse"> <stop offset="0" stop-color="#86c46e"></stop> <stop offset=".56" stop-color="#57a387"></stop> <stop offset=".68" stop-color="#529c88"></stop> <stop offset=".84" stop-color="#468a8d"></stop> <stop offset=".99" stop-color="#377493"></stop> </linearGradient> <linearGradient id="linear-gradient-2" x1="313.47" y1="227.34" x2="325.02" y2="227.34" xlink:href="#linear-gradient"></linearGradient> <linearGradient id="linear-gradient-3" x1="152.6" y1="45.09" x2="167.95" y2="45.09" xlink:href="#linear-gradient"></linearGradient> <linearGradient id="linear-gradient-4" x1="109.93" y1="57.12" x2="118.91" y2="57.12" xlink:href="#linear-gradient"></linearGradient> <linearGradient id="linear-gradient-5" x1="30.1" y1="5.99" x2="42.34" y2="5.99" xlink:href="#linear-gradient"></linearGradient> <linearGradient id="linear-gradient-6" x1="106.19" y1="37.07" x2="110.81" y2="37.07" xlink:href="#linear-gradient"></linearGradient> <linearGradient id="linear-gradient-7" x1="100.34" y1="267.94" x2="112.5" y2="267.94" xlink:href="#linear-gradient"></linearGradient> <linearGradient id="linear-gradient-8" x1="132.31" y1="247.56" x2="140.64" y2="247.56" xlink:href="#linear-gradient"></linearGradient> <linearGradient id="linear-gradient-9" x1="344.85" y1="231.84" x2="369.83" y2="231.84" xlink:href="#linear-gradient"></linearGradient> <linearGradient id="linear-gradient-10" x1="215.52" y1="265.12" x2="220.67" y2="265.12" xlink:href="#linear-gradient"></linearGradient> <linearGradient id="linear-gradient-11" x1="1484" y1="251.91" x2="1505.66" y2="251.91" gradientTransform="translate(3435.26 296.05) rotate(-180)" xlink:href="#linear-gradient"></linearGradient> <linearGradient id="linear-gradient-12" x1="1797.47" y1="244.34" x2="1809.02" y2="244.34" gradientTransform="translate(3435.26 296.05) rotate(-180)" xlink:href="#linear-gradient"></linearGradient> <linearGradient id="linear-gradient-13" x1="1636.6" y1="62.09" x2="1651.95" y2="62.09" gradientTransform="translate(3435.26 296.05) rotate(-180)" xlink:href="#linear-gradient"></linearGradient> <linearGradient id="linear-gradient-14" x1="2298.6" y1="134.09" x2="2313.95" y2="134.09" gradientTransform="translate(3435.26 296.05) rotate(-180)" xlink:href="#linear-gradient"></linearGradient> <linearGradient id="linear-gradient-15" x1="2517.04" y1="132.33" x2="2545.65" y2="132.33" gradientTransform="translate(3435.26 296.05) rotate(-180)" xlink:href="#linear-gradient"></linearGradient> <linearGradient id="linear-gradient-16" x1="1506.91" y1="83.14" x2="1552.5" y2="83.14" gradientTransform="translate(3435.26 296.05) rotate(-180)" xlink:href="#linear-gradient"></linearGradient> <linearGradient id="linear-gradient-17" x1="1685.32" y1="120.14" x2="1730.91" y2="120.14" gradientTransform="translate(2225.27 -1475.94) rotate(102.94)" xlink:href="#linear-gradient"></linearGradient> <linearGradient id="linear-gradient-18" x1="3104.76" y1="156.48" x2="3150.35" y2="156.48" gradientTransform="translate(1489.43 -2733.02) rotate(109.65)" xlink:href="#linear-gradient"></linearGradient> <linearGradient id="linear-gradient-19" x1="2500.99" y1="127.72" x2="2514.18" y2="127.72" gradientTransform="translate(3435.26 296.05) rotate(-180)" xlink:href="#linear-gradient"></linearGradient> <linearGradient id="linear-gradient-20" x1="2252.4" y1="133.71" x2="2260.26" y2="133.71" gradientTransform="translate(3435.26 296.05) rotate(-180)" xlink:href="#linear-gradient"></linearGradient> <linearGradient id="linear-gradient-21" x1="1593.93" y1="74.12" x2="1602.91" y2="74.12" gradientTransform="translate(3435.26 296.05) rotate(-180)" xlink:href="#linear-gradient"></linearGradient> <linearGradient id="linear-gradient-22" x1="1514.1" y1="22.99" x2="1526.34" y2="22.99" gradientTransform="translate(3435.26 296.05) rotate(-180)" xlink:href="#linear-gradient"></linearGradient> <linearGradient id="linear-gradient-23" x1="1590.19" y1="54.07" x2="1594.81" y2="54.07" gradientTransform="translate(3435.26 296.05) rotate(-180)" xlink:href="#linear-gradient"></linearGradient> <linearGradient id="linear-gradient-24" x1="1828.85" y1="218.84" x2="1853.83" y2="218.84" gradientTransform="translate(3435.26 296.05) rotate(-180)" xlink:href="#linear-gradient"></linearGradient> <linearGradient id="linear-gradient-25" x1="2316.85" y1="123.84" x2="2341.83" y2="123.84" gradientTransform="translate(3435.26 296.05) rotate(-180)" xlink:href="#linear-gradient"></linearGradient> <linearGradient id="linear-gradient-26" x1="196.92" y1="62.09" x2="284.93" y2="131.21" gradientTransform="translate(177.62 409.5) rotate(-102.27)" gradientUnits="userSpaceOnUse"> <stop offset="0" stop-color="#86c46e"></stop> <stop offset=".5" stop-color="#57a387"></stop> <stop offset=".77" stop-color="#468a8d"></stop> <stop offset="1" stop-color="#377493"></stop> </linearGradient> <linearGradient id="linear-gradient-27" x1="-158.26" y1="1643.73" x2="-70.24" y2="1712.85" gradientTransform="translate(1107.94 1687.22) rotate(-158.57)" xlink:href="#linear-gradient-26"></linearGradient> <linearGradient id="linear-gradient-28" x1="59.84" y1="78.97" x2="188" y2="179.63" gradientTransform="translate(57.24 -39.61) rotate(22.16)" xlink:href="#linear-gradient-26"></linearGradient> <linearGradient id="linear-gradient-29" x1="1846.31" y1="65.82" x2="1992.73" y2="126.37" gradientTransform="translate(270.24 1097.66) rotate(-33.92)" gradientUnits="userSpaceOnUse"> <stop offset="0" stop-color="#86c46e"></stop> <stop offset=".04" stop-color="#82c170"></stop> <stop offset=".37" stop-color="#62ab80"></stop> <stop offset=".56" stop-color="#57a387"></stop> <stop offset=".74" stop-color="#4d998a"></stop> <stop offset=".99" stop-color="#378493"></stop> </linearGradient> </defs> <g id="_Слой_9" data-name="Слой 9"> <g> <path class="cls-24" d="M13.59,232.85c-.59,.11-.98,.01-.43-.67l2.84-3.69c.95-1.14,1.53-2.1,.33-2.9-2.69-1.79-6.41-1.99-9.99-.63-2.16,.82-3.97,2.44-5,4.5-4.54,9.1,3.21,18.11,12.18,15.95,3.45-.83,6.29-3.44,7.48-6.78,.77-2.16,.82-4.23,.38-6.13-.18-.77-.97-1.22-1.73-1.01l-6.06,1.35Z"></path> <path class="cls-1" d="M317.22,227.45c.31,.12,.46,.28,0,.44l-2.38,.89c-.77,.25-1.32,.53-.99,1.25,.77,1.7,2.59,2.91,4.8,3.24,1.04,.15,2.12-.05,3.03-.56,4.98-2.82,4.08-9.36-.71-11.03-1.91-.67-4.09-.24-5.64,1.06-.91,.76-1.49,1.67-1.82,2.62-.14,.41,.1,.85,.51,.97l3.2,1.13Z"></path> <path class="cls-23" d="M162.15,46.62c-.18-.39-.18-.66,.39-.41l3.02,1.3c.95,.45,1.71,.68,2.05-.29,.75-2.15,.24-4.73-1.32-6.93-.83-1.18-2.72-2.4-4.14-2.68-6.9-1.36-11.59,5.38-8.67,11.08,1.15,2.24,3.45,3.78,5.96,4.02,1.64,.16,3.09-.17,4.32-.81,.49-.26,.67-.88,.38-1.36l-1.99-3.91Z"></path> <path class="cls-29" d="M113.1,57.66c.25,.02,.39,.1,.1,.32l-1.53,1.18c-.5,.36-.83,.68-.44,1.13,.79,.88,2.03,1.36,3.4,1.33s2.65-.71,3.42-1.82c2.2-3.18-.05-7.25-3.8-7.18-1.33,.03-2.62,.71-3.41,1.78-.61,.83-.88,1.72-.91,2.57,0,.33,.26,.59,.59,.59l2.57,.09Z"></path> <path class="cls-18" d="M36.65,4.05c-.2,.27-.4,.37-.43-.12l-.21-2.59c-.03-.83-.16-1.44-.95-1.32-1.88,.28-3.58,1.73-4.52,3.82-.44,.98-.55,2.1-.29,3.14,1.38,5.68,8.07,6.62,11.05,2.38,1.19-1.69,1.38-3.96,.53-5.85-.49-1.1-1.22-1.93-2.08-2.52-.36-.25-.86-.14-1.09,.23l-2,2.83Z"></path> <path class="cls-10" d="M108.01,36.53c.04,.12,.02,.21-.13,.11l-.84-.52c-.26-.18-.48-.28-.62,0-.24,.46-.28,1.03-.12,1.6,.23,.84,.89,1.47,1.74,1.63,1.75,.33,3.14-1.23,2.7-2.87-.23-.86-.97-1.52-1.85-1.67-.4-.07-.78-.02-1.11,.09-.16,.05-.24,.23-.18,.39l.42,1.26Z"></path> <path class="cls-19" d="M108.18,268.75c-.22-.26-.28-.47,.21-.4l2.59,.37c.82,.15,1.45,.16,1.51-.64,.14-1.91-.91-3.89-2.75-5.28-.86-.65-1.93-1-3.01-.98-5.87,.1-8.27,6.45-4.76,10.3,1.4,1.54,3.58,2.22,5.61,1.81,1.19-.24,2.16-.77,2.93-1.48,.33-.3,.33-.81,.01-1.12l-2.34-2.59Z"></path> <path class="cls-30" d="M136.98,246.34c-.17,.15-.32,.2-.27-.13l.19-1.77c.08-.56,.08-.99-.47-1.01-1.09-.04-2.2,.48-3.06,1.41s-1.22,2.21-.97,3.43c.71,3.49,4.87,4.6,7.21,2.05,.86-.94,1.21-2.29,.96-3.54-.18-.87-.58-1.57-1.11-2.1-.21-.21-.56-.2-.77,.02l-1.71,1.65Z"></path> <path class="cls-21" d="M355.47,219.49c-5.6,.81-10,5.52-10.56,11.15-.34,3.46,.61,6.75,2.73,9.04,1.24,1.34,1.27,.84,1.95,.03,.91-1.09,2.57-2.62,4.57-3.75,.67-.38,1.06-.31,1.13,.57,.09,1.16,.15,3.26-.51,6.24-.22,1.01-.46,1.25,1.01,1.44,2.38,.31,4.96-.04,7.69-1.63,3.21-1.85,5.58-5.01,6.17-8.67,1.37-8.45-5.76-15.66-14.19-14.43Z"></path> <path class="cls-14" d="M217.23,265.01c.12,.08,.17,.16-.04,.19l-1.11,.16c-.36,.04-.62,.11-.54,.45,.13,.58,.51,1.1,1.06,1.48,.81,.56,1.84,.63,2.7,.14,1.76-.99,1.83-3.36,.25-4.46-.83-.58-1.95-.62-2.82-.1-.4,.24-.69,.54-.9,.89-.1,.16-.04,.38,.13,.47l1.28,.78Z"></path> </g> <g> <path class="cls-11" d="M1937.67,46.2c.59-.11,.98-.01,.43,.67l-2.84,3.69c-.95,1.14-1.53,2.1-.33,2.9,2.69,1.79,6.41,1.99,9.99,.63,2.16-.82,3.97-2.44,5-4.5,4.54-9.1-3.21-18.11-12.18-15.95-3.45,.83-6.29,3.44-7.48,6.78-.77,2.16-.82,4.23-.38,6.13,.18,.77,.97,1.22,1.73,1.01l6.06-1.35Z"></path> <path class="cls-31" d="M1634.04,51.6c-.31-.12-.46-.28,0-.44l2.38-.89c.77-.25,1.32-.53,.99-1.25-.77-1.7-2.59-2.91-4.8-3.24-1.04-.15-2.12,.05-3.03,.56-4.98,2.82-4.08,9.36,.71,11.03,1.91,.67,4.09,.24,5.64-1.06,.91-.76,1.49-1.67,1.82-2.62,.14-.41-.1-.85-.51-.97l-3.2-1.13Z"></path> <path class="cls-32" d="M1789.11,232.44c.18,.39,.18,.66-.39,.41l-3.02-1.3c-.95-.45-1.71-.68-2.05,.29-.75,2.15-.24,4.73,1.32,6.93,.83,1.18,2.72,2.4,4.14,2.68,6.9,1.36,11.59-5.38,8.67-11.08-1.15-2.24-3.45-3.78-5.96-4.02-1.64-.16-3.09,.17-4.32,.81-.49,.26-.67,.88-.38,1.36l1.99,3.91Z"></path> <path class="cls-8" d="M1127.11,160.44c.18,.39,.18,.66-.39,.41l-3.02-1.3c-.95-.45-1.71-.68-2.05,.29-.75,2.15-.24,4.73,1.32,6.93,.83,1.18,2.72,2.4,4.14,2.68,6.9,1.36,11.59-5.38,8.67-11.08-1.15-2.24-3.45-3.78-5.96-4.02-1.64-.16-3.09,.17-4.32,.81-.49,.26-.67,.88-.38,1.36l1.99,3.91Z"></path> <path class="cls-5" d="M900.97,167.16c.73-.32,1.25-.31,.75,.74l-2.57,5.59c-.89,1.75-1.35,3.16,.44,3.83,5.19,1.97,11.85-.05,16.63-5.23,8.5-17.58-11.92-30.88-24.4-16.8,0,0,0,0,0,0-2.92,5.74-2.66,10.72-.77,14.61,.46,.93,1.62,1.29,2.53,.78l7.4-3.53Z"></path> <path class="cls-15" d="M1900.85,218.39c1.16-.51,1.99-.49,1.2,1.18l-4.09,8.9c-1.42,2.79-2.14,5.03,.7,6.11,8.27,3.13,18.88-.08,26.49-8.33,13.55-28.01-18.99-49.2-38.88-26.77,0,0,0,0,0,.01-4.65,9.15-4.24,17.08-1.22,23.28,.73,1.49,2.58,2.05,4.03,1.25l11.8-5.62Z"></path> <path class="cls-4" d="M1729.87,167.68c-.23-1.24-.03-2.05,1.42-.9l7.76,5.98c2.41,2.01,4.42,3.22,6.11,.69,4.91-7.36,4.15-18.42-2.19-27.68-24.27-19.48-52.2,7.49-34.8,31.9,0,0,0,0,.01,.01,7.88,6.58,15.7,7.96,22.41,6.41,1.61-.37,2.57-2.05,2.12-3.64l-2.84-12.76Z"></path> <path class="cls-6" d="M294.16,166.14c-.09-1.26,.21-2.04,1.51-.73l7.01,6.84c2.16,2.27,4.02,3.71,5.99,1.4,5.73-6.74,6.27-17.81,1.06-27.75-21.83-22.18-52.72,1.35-38.28,27.62,0,0,0,0,0,.01,7.05,7.46,14.66,9.74,21.51,8.98,1.65-.18,2.79-1.74,2.53-3.37l-1.33-13Z"></path> <path class="cls-28" d="M926.98,166.35c-.04,.36-.17,.57-.47,.13l-1.63-2.31c-.49-.76-.95-1.26-1.63-.71-1.61,1.31-2.39,3.61-2.11,6.09,.13,1.16,.65,2.26,1.47,3.1,4.45,4.55,11.23,1.72,11.66-3.9,.17-2.24-.91-4.47-2.74-5.77-1.07-.76-2.22-1.13-3.34-1.21-.48-.03-.88,.35-.89,.83l-.3,3.76Z"></path> <path class="cls-9" d="M1180.01,162.97c-.12-.18-.15-.32,.16-.24l1.64,.41c.52,.15,.92,.2,1.01-.31,.18-1.02-.17-2.12-.92-3.05-.74-.91-1.92-1.43-3.09-1.36-3.25,.2-4.84,3.71-3.07,6.23,.78,1.11,2.16,1.74,3.51,1.62,.79-.07,1.46-.35,2-.75,.23-.17,.26-.5,.08-.72l-1.33-1.82Z"></path> <path class="cls-16" d="M1838.16,221.4c-.25-.02-.39-.1-.1-.32l1.53-1.18c.5-.36,.83-.68,.44-1.13-.79-.88-2.03-1.36-3.4-1.33s-2.65,.71-3.42,1.82c-2.2,3.18,.05,7.25,3.8,7.18,1.33-.03,2.62-.71,3.41-1.78,.61-.83,.88-1.72,.91-2.57,0-.33-.26-.59-.59-.59l-2.57-.09Z"></path> <path class="cls-22" d="M1914.61,275.01c.2-.27,.4-.37,.43,.12l.21,2.59c.03,.83,.16,1.44,.95,1.32,1.88-.28,3.58-1.73,4.52-3.82,.44-.98,.55-2.1,.29-3.14-1.38-5.68-8.07-6.62-11.05-2.38-1.19,1.69-1.38,3.96-.53,5.85,.49,1.1,1.22,1.93,2.08,2.52,.36,.25,.86,.14,1.09-.23l2-2.83Z"></path> <path class="cls-27" d="M1843.25,242.53c-.04-.12-.02-.21,.13-.11l.84,.52c.26,.18,.48,.28,.62,0,.24-.46,.28-1.03,.12-1.6-.23-.84-.89-1.47-1.74-1.63-1.75-.33-3.14,1.23-2.7,2.87,.23,.86,.97,1.52,1.85,1.67,.4,.07,.78,.02,1.11-.09,.16-.05,.24-.23,.18-.39l-.42-1.26Z"></path> <path class="cls-20" d="M1595.79,89.56c5.6-.81,10-5.52,10.56-11.15,.34-3.46-.61-6.75-2.73-9.04-1.24-1.34-1.27-.84-1.95-.03-.91,1.09-2.57,2.62-4.57,3.75-.67,.38-1.06,.31-1.13-.57-.09-1.16-.15-3.26,.51-6.24,.22-1.01,.46-1.25-1.01-1.44-2.38-.31-4.96,.04-7.69,1.63-3.21,1.85-5.58,5.01-6.17,8.67-1.37,8.45,5.76,15.66,14.19,14.43Z"></path> <path class="cls-17" d="M1107.79,184.56c5.6-.81,10-5.52,10.56-11.15,.34-3.46-.61-6.75-2.73-9.04-1.24-1.34-1.27-.84-1.95-.03-.91,1.09-2.57,2.62-4.57,3.75-.67,.38-1.06,.31-1.13-.57-.09-1.16-.15-3.26,.51-6.24,.22-1.01,.46-1.25-1.01-1.44-2.38-.31-4.96,.04-7.69,1.63-3.21,1.85-5.58,5.01-6.17,8.67-1.37,8.45,5.76,15.66,14.19,14.43Z"></path> </g> <g> <path class="cls-33" d="M229.63,125.04l-.15-21.94c-.02-2.55-1.98-4.68-4.51-4.87-7.21-.55-14.72,.24-22.12,2.78-26.71,9.16-41.07,34.32-37.49,60.77,4.61,34.12,38.75,55.73,71.77,45.73,26.13-7.92,42.89-34.24,39.04-61.26-1.96-13.74-8.64-25.46-18.08-33.9-2.45-2.19-6.14-2.23-8.56,0l-15.72,14.5c-2.86,2.64-4.29,1.75-4.18-1.81Z"></path> <g class="cls-12"> <path class="cls-13" d="M205.11,152.24s.73-3.56-6.46-8.51c-7.19-4.95-15.82-9.18-19.02-10.08s-5.68,.13-7.18,3.36c-1.5,3.23-4.37,13.07-1.07,16.26,3.3,3.19,33.12,2.61,33.73-1.03Z"></path> <path class="cls-13" d="M212.39,135.26s-.79,.29-4.01-4.87c-3.49-5.59-7.26-14.04-8.28-17.83s.42-5.9,3.61-6.89,11.24-1.74,11.56,2.49-.27,27.53-2.87,27.09Z"></path> <path class="cls-13" d="M236.64,135.11s.79,.63,3.56-1.37c2.77-2,13.95-11.15,13.95-11.15,0,0,2.07-1.3,.81-2.93-1.06-1.37-2.29-2.46-3.73-1.24s-11.07,11.47-13.04,13.7-1.8,2.54-1.55,2.99Z"></path> <path class="cls-13" d="M232.68,151.97s-.4,1.43,8.71,1.18c9.12-.24,20.46-.55,23.05-.73,2.59-.19,5.51-.9,5.8-3.37,.29-2.47-1.21-10.03-3.49-13.29-2.29-3.26-6.98,.71-9.96,2.36,.34-.19-14.64,8.28-18.16,9.92-3.41,1.58-6.2,2.85-5.95,3.92Z"></path> <path class="cls-13" d="M256.4,192.38s6.4-6.4,5.13-10.85c-1.27-4.46-30.74-19.75-30.74-19.75,0,0-3.84-1.79-5.03-.33-1.47,1.81,6.84,14.51,16.74,24.82,9.58,9.98,11.08,8.48,13.89,6.11Z"></path> <path class="cls-13" d="M207.04,194.13s-5.22-1.57-5.52-3.61,2.84-9.4,9.26-18.91c0,0,2.43-3.68,4.16-3.31,1.73,.37,.83,15.89,.51,20.32s-.89,7.63-8.42,5.51Z"></path> <path class="cls-13" d="M268.39,175.16s2.08-3.32,.63-4.81-19.74-7.2-20.5-4.48c-.76,2.72,13.21,10.64,14.38,11.22,2.02,.99,3.53,1.21,5.49-1.93Z"></path> <path class="cls-13" d="M182.67,181.86s1.72,2.71,4.99,.49c3.27-2.21,13.86-11.88,12.39-13.14-1.48-1.26-14.82,7.13-14.82,7.13,0,0-4.72,2.45-2.56,5.51Z"></path> <path class="cls-13" d="M227.3,202.64s-2.78,.68-3.16-1.04l-5.38-24.74s-.8-2.98,0-3.15c1-.22,1.85,1.6,3.35,5.03s7.36,20.98,7.36,20.98c0,0,.93,2.06-2.16,2.93Z"></path> <path class="cls-13" d="M205.1,157.4s0-1.12-3.3-.85c-3.47,.28-11.64,.89-11.64,.89,0,0-3.48,.41-3.04,2.41,0,0,.19,2.25,4.01,1.49s14.52-2.77,13.98-3.95Z"></path> <path class="cls-13" d="M210.34,143.59s-1.02,.62-3.84-2.67-5.72-6.52-3.32-8.14c2.4-1.62,4.32,.76,6.74,6.8,0,0,1.44,3.48,.42,4.01Z"></path> <path class="cls-13" d="M220.16,113.66s.97,.54,3.02-4.06c1.88-4.21,2.12-6.82-.38-7.28-2.5-.46-3.8,1.18-3.73,5.17,.07,3.99,.1,5.99,1.09,6.17Z"></path> <ellipse class="cls-13" cx="232.27" cy="138.98" rx="2.94" ry="1.41" transform="translate(-30.33 204.6) rotate(-44.92)"></ellipse> <path class="cls-13" d="M247.47,165.31s.76-1.36-.94-2.7c-1.61-1.27-2.94-.41-3.25,.26s-.17,2.06,1.7,2.98c1.8,.89,2.49-.54,2.49-.54Z"></path> </g> <g class="cls-2"> <circle class="cls-13" cx="245.75" cy="186.6" r="3.94"></circle> <circle class="cls-13" cx="259.91" cy="135.09" r="5.28"></circle> <circle class="cls-13" cx="269.34" cy="154.16" r="1.98"></circle> <circle class="cls-13" cx="239.12" cy="190.88" r="1.54"></circle> <circle class="cls-13" cx="224.56" cy="192.01" r="2.97"></circle> <circle class="cls-13" cx="216.16" cy="196.44" r="1.5"></circle> <circle class="cls-13" cx="226.71" cy="201.9" r="2.29"></circle> </g> <g> <circle class="cls-3" cx="244.52" cy="186.86" r="3.94"></circle> <circle class="cls-3" cx="258.68" cy="135.36" r="5.28"></circle> <circle class="cls-3" cx="268.11" cy="154.43" r="1.98"></circle> <circle class="cls-3" cx="237.89" cy="191.15" r="1.54"></circle> <circle class="cls-3" cx="223.32" cy="192.27" r="2.97"></circle> <circle class="cls-3" cx="214.92" cy="196.7" r="1.5"></circle> <circle class="cls-3" cx="225.48" cy="202.17" r="2.29"></circle> </g> </g> <g> <path class="cls-25" d="M1808.58,143.56l-18.34-12.05c-2.13-1.4-4.99-.95-6.56,1.05-4.46,5.7-7.96,12.38-9.96,19.95-7.2,27.3,5.76,53.2,29.76,64.91,30.94,15.09,67.87-1.32,77.86-34.33,7.91-26.13-4.69-54.68-29.31-66.47-12.52-6-25.98-6.94-38.23-3.77-3.18,.82-5.26,3.87-4.75,7.12l3.35,21.12c.61,3.85-.92,4.54-3.82,2.47Z"></path> <g class="cls-12"> <path class="cls-13" d="M1817.6,179.05s-2.56-2.58-10.66,.65-16.41,8.07-18.94,10.23-3.04,4.8-1.18,7.84c1.86,3.04,8.45,10.88,12.93,9.91,4.48-.97,20.55-26.1,17.86-28.63Z"></path> <path class="cls-13" d="M1807.51,163.58s-.2,.82-6.28,.64c-6.59-.19-15.71-1.75-19.43-3-3.72-1.25-4.68-3.62-3.73-6.83,.94-3.2,4.78-10.32,8.49-8.23s22.75,15.5,20.95,17.42Z"></path> <path class="cls-13" d="M1820.85,143.32s.96-.31,.83-3.72c-.13-3.42-1.53-17.79-1.53-17.79,0,0,.07-2.44-1.99-2.3-1.73,.12-3.31,.54-3.1,2.41s3.4,15.58,4.16,18.45,1.12,2.91,1.63,2.95Z"></path> <path class="cls-13" d="M1832.67,155.97s.96,1.12,5.82-6.59c4.86-7.72,10.9-17.33,12.18-19.58,1.28-2.26,2.31-5.09,.42-6.69-1.89-1.61-9.01-4.56-12.99-4.47-3.98,.09-3.28,6.2-3.56,9.6,.03-.39-1.23,16.77-1.83,20.61-.58,3.71-1.07,6.74-.04,7.13Z"></path> <path class="cls-13" d="M1879.45,158.65s-1.77-8.88-6.18-10.29c-4.41-1.42-33.49,14.61-33.49,14.61,0,0-3.62,2.2-3.07,4,.69,2.23,15.87,2.36,29.94-.15,13.62-2.44,13.2-4.52,12.79-8.16Z"></path> <path class="cls-13" d="M1853.52,200.69s-4.2,3.48-6.06,2.59-6.25-7.58-10.6-18.19c0,0-1.72-4.06-.44-5.3,1.27-1.23,13.68,8.13,17.19,10.85s5.85,4.98-.08,10.06Z"></path> <path class="cls-13" d="M1871.78,139.12s-1.61-3.57-3.65-3.19c-2.04,.38-16.94,12.43-15.1,14.57,1.84,2.14,16.18-5.08,17.31-5.74,1.94-1.13,2.96-2.26,1.44-5.64Z"></path> <path class="cls-13" d="M1829.79,214.16s3.2,.07,3.18-3.88c-.03-3.95-2.19-18.13-4.05-17.6-1.86,.53-2.29,16.29-2.29,16.29,0,0-.58,5.29,3.17,5.19Z"></path> <path class="cls-13" d="M1871.84,188.56s-.98,2.69-2.62,2.05c-1.64-.64-23.57-9.25-23.57-9.25,0,0-2.92-.99-2.63-1.74,.37-.96,2.36-.65,6.04,0s21.54,5.52,21.54,5.52c0,0,2.23,.37,1.24,3.42Z"></path> <path class="cls-13" d="M1821.89,181.93s-.93-.62-2.54,2.27c-1.69,3.04-5.72,10.18-5.72,10.18,0,0-1.59,3.12,.32,3.86,0,0,1.98,1.09,3.47-2.5s5.75-13.62,4.47-13.82Z"></path> <path class="cls-13" d="M1813.31,169.9s-.05,1.19-4.35,1.71-8.6,1.15-8.62-1.75,3.03-3.17,9.39-1.83c0,0,3.69,.73,3.57,1.88Z"></path> <path class="cls-13" d="M1793.85,145.13s.99-.51-1.7-4.77c-2.46-3.9-4.5-5.55-6.27-3.72-1.77,1.83-1.13,3.81,2.23,5.97s5.04,3.24,5.74,2.52Z"></path> <ellipse class="cls-13" cx="1821.64" cy="149.1" rx="1.41" ry="2.94" transform="translate(5.81 357.37) rotate(-11.22)"></ellipse> <path class="cls-13" d="M1851.97,151.06s-.7-1.39-2.77-.71c-1.95,.64-1.97,2.22-1.59,2.84s1.62,1.29,3.43,.24c1.74-1.01,.93-2.37,.93-2.37Z"></path> </g> <g class="cls-2"> <circle class="cls-13" cx="1868.73" cy="164.3" r="3.94"></circle> <circle class="cls-13" cx="1833.74" cy="123.95" r="5.28"></circle> <circle class="cls-13" cx="1854.84" cy="126.68" r="1.98"></circle> <circle class="cls-13" cx="1868.62" cy="172.19" r="1.54"></circle> <circle class="cls-13" cx="1861.47" cy="184.94" r="2.97"></circle> <circle class="cls-13" cx="1860.5" cy="194.38" r="1.5"></circle> <circle class="cls-13" cx="1870.9" cy="188.64" r="2.29"></circle> </g> <g> <circle class="cls-3" cx="1868.27" cy="165.48" r="3.94"></circle> <circle class="cls-3" cx="1833.28" cy="125.12" r="5.28"></circle> <circle class="cls-3" cx="1854.38" cy="127.86" r="1.98"></circle> <circle class="cls-3" cx="1868.16" cy="173.37" r="1.54"></circle> <circle class="cls-3" cx="1861.01" cy="186.11" r="2.97"></circle> <circle class="cls-3" cx="1860.04" cy="195.56" r="1.5"></circle> <circle class="cls-3" cx="1870.44" cy="189.81" r="2.29"></circle> </g> </g> <g> <path class="cls-7" d="M150.25,160.88l26.48,17.88c3.07,2.07,7.25,1.48,9.57-1.41,6.6-8.21,11.83-17.87,14.87-28.86,10.99-39.62-7.41-77.58-42.13-95.07-44.77-22.55-98.85,.66-114.01,48.55-12,37.9,5.81,79.7,41.44,97.33,18.12,8.97,37.69,10.59,55.6,6.2,4.65-1.14,7.74-5.54,7.05-10.28l-4.48-30.82c-.81-5.61,1.43-6.59,5.62-3.52Z"></path> <g class="cls-12"> <path class="cls-13" d="M137.77,109.04s3.68,3.81,15.54-.75c11.86-4.56,24.05-11.44,27.77-14.54s4.52-6.93,1.87-11.39c-2.65-4.46-12.1-16.01-18.64-14.67-6.54,1.34-30.4,37.63-26.53,41.36Z"></path> <path class="cls-13" d="M152.17,131.75s.3-1.19,9.15-.81c9.59,.4,22.85,2.84,28.23,4.73,5.39,1.89,6.74,5.36,5.31,10.01s-7.16,14.93-12.51,11.83-32.85-22.99-30.18-25.75Z"></path> <path class="cls-13" d="M132.38,161.01s-1.41,.43-1.28,5.4c.13,4.98,1.9,25.93,1.9,25.93,0,0-.14,3.56,2.85,3.39,2.52-.14,4.83-.72,4.56-3.45s-4.66-22.75-5.72-26.95-1.57-4.26-2.32-4.33Z"></path> <path class="cls-13" d="M115.39,142.37s-1.38-1.66-8.6,9.49-16.19,25.03-18.1,28.29c-1.91,3.26-3.46,7.36-.74,9.74s13.04,6.81,18.83,6.75c5.8-.06,4.9-8.96,5.36-13.91-.05,.56,2.1-24.4,3.04-29.98,.91-5.4,1.68-9.79,.19-10.38Z"></path> <path class="cls-13" d="M47.33,137.59s2.41,12.96,8.81,15.1c6.4,2.14,49.03-20.65,49.03-20.65,0,0,5.32-3.14,4.54-5.77-.97-3.26-23.06-3.74-43.6-.33-19.87,3.29-19.31,6.33-18.78,11.65Z"></path> <path class="cls-13" d="M85.86,76.87s6.18-4.98,8.87-3.66,8.96,11.15,15.1,26.69c0,0,2.42,5.95,.55,7.72-1.88,1.77-19.77-12.09-24.83-16.11-5.06-4.02-8.43-7.36,.31-14.65Z"></path> <path class="cls-13" d="M58.13,166.17s2.28,5.23,5.26,4.71,24.9-17.79,22.26-20.94c-2.64-3.15-23.66,7.1-25.32,8.04-2.85,1.61-4.36,3.24-2.2,8.19Z"></path> <path class="cls-13" d="M120.67,57.69s-4.66-.17-4.7,5.59c-.04,5.76,2.85,26.43,5.58,25.7,2.72-.74,3.64-23.67,3.64-23.67,0,0,.94-7.69-4.52-7.61Z"></path> <path class="cls-13" d="M58.96,94.18s1.47-3.9,3.85-2.93,34.15,13.91,34.15,13.91c0,0,4.24,1.49,3.79,2.58-.56,1.39-3.45,.9-8.8-.12s-31.26-8.43-31.26-8.43c0,0-3.24-.57-1.74-5Z"></path> <path class="cls-13" d="M131.57,104.77s1.35,.91,3.75-3.26c2.52-4.4,8.51-14.72,8.51-14.72,0,0,2.38-4.51-.4-5.63,0,0-2.86-1.63-5.09,3.58-2.28,5.3-8.63,19.72-6.77,20.04Z"></path> <path class="cls-13" d="M143.85,122.44s.09-1.73,6.37-2.41c6.28-.68,12.54-1.51,12.51,2.71-.03,4.22-4.47,4.56-13.71,2.5,0,0-5.37-1.13-5.17-2.8Z"></path> <path class="cls-13" d="M171.72,158.87s-1.45,.72,2.39,6.97c3.51,5.72,6.45,8.16,9.06,5.53s1.71-5.53-3.13-8.74-7.27-4.81-8.31-3.77Z"></path> <ellipse class="cls-13" cx="131.33" cy="152.58" rx="2.05" ry="4.28" transform="translate(-25.59 26.47) rotate(-10.49)"></ellipse> <path class="cls-13" d="M87.2,149.15s1,2.03,4.02,1.09c2.85-.89,2.91-3.19,2.36-4.11s-2.34-1.9-4.99-.41c-2.55,1.43-1.4,3.43-1.4,3.43Z"></path> </g> <g class="cls-2"> <circle class="cls-13" cx="63.04" cy="129.56" r="5.74"></circle> <circle class="cls-13" cx="113.24" cy="188.97" r="7.7"></circle> <circle class="cls-13" cx="82.57" cy="184.6" r="2.89"></circle> <circle class="cls-13" cx="63.35" cy="118.07" r="2.24"></circle> <circle class="cls-13" cx="73.99" cy="99.65" r="4.33"></circle> <circle class="cls-13" cx="75.59" cy="85.91" r="2.19"></circle> <circle class="cls-13" cx="60.33" cy="94.09" r="3.34"></circle> </g> <g> <circle class="cls-3" cx="63.73" cy="127.86" r="5.74"></circle> <circle class="cls-3" cx="113.93" cy="187.27" r="7.7"></circle> <circle class="cls-3" cx="83.27" cy="182.9" r="2.89"></circle> <circle class="cls-3" cx="64.04" cy="116.37" r="2.24"></circle> <circle class="cls-3" cx="74.68" cy="97.95" r="4.33"></circle> <circle class="cls-3" cx="76.28" cy="84.21" r="2.19"></circle> <circle class="cls-3" cx="61.02" cy="92.39" r="3.34"></circle> </g> </g> <path class="cls-26" d="M1877.87,121.17l-24.12,19.22c-2.8,2.23-3.46,6.25-1.47,9.22,5.66,8.45,13.05,16.05,22.29,22.03,33.32,21.57,73.6,15.58,99.74-11.35,33.7-34.73,27.94-91.25-11.8-119.04-31.45-22-75.09-17.67-101.63,10.06-13.49,14.1-20.64,31.66-21.77,49.43-.29,4.61,2.87,8.73,7.44,9.46l29.69,4.77c5.4,.87,5.66,3.22,1.63,6.19Z"></path> <g class="cls-12"> <path class="cls-13" d="M1855.99,88.79s1.75-8.96,7.29-7.63c5.53,1.33,22.91,11.74,28.57,15.71,5.67,3.96,5.57,5.17,5.15,6.17s-2.67,2.25-12.87,1.02c-10.2-1.24-20.95-3.29-24.13-4.23-3.19-.95-6.02-3.41-4.01-11.03Z"></path> <path class="cls-13" d="M1888.21,56.3s-2.71,1.32,1.08,6.55c3.79,5.23,21.28,27.98,22.93,25.78,1.66-2.2-18.36-29.74-18.36-29.74,0,0-2.92-4.44-5.65-2.59Z"></path> <path class="cls-13" d="M1904.49,40.62s9.65-3.9,15.21-3.96c5.56-.05,7.95,1.88,9.41,6.49,1.46,4.61,.52,40.33-7.23,43.41,0,0-5.35,3.6-21.32-33.14,0,0-4.7-10.01,3.92-12.81Z"></path> <path class="cls-13" d="M1941.94,91.15s-2.93-2.49,9.81-15.38c12.74-12.89,17.4-18.12,24.68-8.73,0,0,7.27,8.98-5.21,14.37-12.6,5.44-27.89,12.75-29.28,9.73Z"></path> <path class="cls-13" d="M1934.65,125.02s-1.97,1.13,2.6,11.16c4.56,10.03,10.01,20.56,11.43,23.69,1.43,3.13,4.32,9.24,14.27,2.54,9.95-6.69,5.88-12.14,2.92-14.92-2.96-2.78-22.15-18.53-22.15-18.53,0,0-7.19-6.21-9.07-3.95Z"></path> <path class="cls-13" d="M1918.56,119.56s2.17-.04,1.38,7.53c-.88,8.42-7.01,36.64-7.01,36.64,0,0-.77,11.02-15.02,3.83,0,0-7.43-3.74-3.31-11.42,4.11-7.68,20.32-37.95,23.97-36.58Z"></path> <path class="cls-13" d="M1921.11,174.26s3.63,.42,5.62-.78c1.99-1.2,1.82-7.3-.81-28.93,0,0-.63-3.78-1.85-4.23-1.22-.46-2.12,3.34-2.87,8.57-.75,5.24-2.22,18.05-2.22,18.05,0,0-1.12,6.48,2.13,7.32Z"></path> <path class="cls-13" d="M1948.43,115.69s.07,1.45,5.13,4.51,20.02,11.92,22.32,10.47c2.3-1.45,1.96-4.52,.35-5.43-1.61-.91-17.73-6.89-20.67-8.28-2.94-1.39-6.68-2.35-7.13-1.27Z"></path> <path class="cls-13" d="M1934.12,89.81s2.87,1.7,4.2-.65,7.76-12.4,5.47-14.05-10.67,9.96-10.67,9.96c0,0-2.11,3.09,1,4.73Z"></path> <path class="cls-13" d="M1882.18,147.85s-2.17-2.18,1.25-5.75,12.71-11.01,14.79-12.77c2.08-1.76,3.32-1.14,1.7,1.59s-9.62,13.29-11.3,15.51-4.64,3.52-6.44,1.42Z"></path> <path class="cls-13" d="M1874.57,147.6s-2.48,1.85-.38,5.26c2.11,3.4,4.19,1.91,4.8,1.32s1.85-1.98,.32-4.4c-1.54-2.42-3.15-3.33-4.74-2.18Z"></path> </g> <g class="cls-2"> <circle class="cls-13" cx="1860.59" cy="145.9" r="3.41"></circle> <circle class="cls-13" cx="1887.95" cy="160.19" r="2.57"></circle> <circle class="cls-13" cx="1890.43" cy="151.48" r="1.93"></circle> <circle class="cls-13" cx="1900.53" cy="157.05" r="2.91"></circle> <circle class="cls-13" cx="1909.38" cy="171.29" r="4.19"></circle> </g> <g> <circle class="cls-3" cx="1859.86" cy="144.81" r="3.41"></circle> <circle class="cls-3" cx="1887.22" cy="159.1" r="2.57"></circle> <circle class="cls-3" cx="1889.7" cy="150.4" r="1.93"></circle> <circle class="cls-3" cx="1899.8" cy="155.96" r="2.91"></circle> <circle class="cls-3" cx="1908.65" cy="170.2" r="4.19"></circle> </g> </g> </svg> 